<mxfile host="app.diagrams.net" modified="2022-01-03T03:48:03.051Z" agent="5.0 (Macintosh; Intel Mac OS X 10_15_7) AppleWebKit/537.36 (KHTML, like Gecko) Chrome/96.0.4664.110 Safari/537.36" etag="6OGWo8M0MqEkIR16701K" version="15.9.4" type="github">
  <diagram id="UDsp1ZMK-AZL_QFiE6NE" name="第 1 页">
    <mxGraphModel dx="1220" dy="723" grid="1" gridSize="10" guides="1" tooltips="1" connect="1" arrows="1" fold="1" page="1" pageScale="1" pageWidth="1169" pageHeight="1654" math="0" shadow="0">
      <root>
        <mxCell id="0" />
        <mxCell id="1" parent="0" />
        <mxCell id="_ru-9vgrOX0eKTn-rHO9-1" value="Process Bar" style="swimlane;fontStyle=2;childLayout=stackLayout;horizontal=1;startSize=20;fillColor=none;horizontalStack=1;resizeParent=1;resizeParentMax=0;resizeLast=0;collapsible=0;marginBottom=0;swimlaneFillColor=none;strokeColor=none;fontFamily=Helvetica;fontSize=14;fontColor=#BABABA;points=[];verticalAlign=middle;stackBorder=10;stackSpacing=-10;resizable=1;" parent="1" vertex="1">
          <mxGeometry x="390" y="320" width="390" height="100" as="geometry" />
        </mxCell>
        <mxCell id="_ru-9vgrOX0eKTn-rHO9-2" value="Step 1" style="shape=step;perimeter=stepPerimeter;strokeColor=#6C8EBF;fontFamily=Helvetica;fontSize=14;fontColor=#6C8EBF;fillColor=#dae8fc;fixedSize=1;size=17;fontStyle=1;strokeWidth=2;spacingTop=0;points=[];" parent="_ru-9vgrOX0eKTn-rHO9-1" vertex="1">
          <mxGeometry x="10" y="30" width="100" height="60" as="geometry" />
        </mxCell>
        <mxCell id="_ru-9vgrOX0eKTn-rHO9-3" value="Step 2" style="shape=step;perimeter=stepPerimeter;strokeColor=#82B366;fontFamily=Helvetica;fontSize=14;fontColor=#82B366;fillColor=#d5e8d4;fixedSize=1;size=17;fontStyle=1;strokeWidth=2;spacingTop=0;points=[];" parent="_ru-9vgrOX0eKTn-rHO9-1" vertex="1">
          <mxGeometry x="100" y="30" width="100" height="60" as="geometry" />
        </mxCell>
        <mxCell id="_ru-9vgrOX0eKTn-rHO9-4" value="Step 3" style="shape=step;perimeter=stepPerimeter;strokeColor=#D6B656;fontFamily=Helvetica;fontSize=14;fontColor=#D6B656;fillColor=#fff2cc;fixedSize=1;size=17;fontStyle=1;strokeWidth=2;spacingTop=0;points=[];" parent="_ru-9vgrOX0eKTn-rHO9-1" vertex="1">
          <mxGeometry x="190" y="30" width="100" height="60" as="geometry" />
        </mxCell>
        <mxCell id="_ru-9vgrOX0eKTn-rHO9-5" value="Step 4" style="shape=step;perimeter=stepPerimeter;strokeColor=#B85450;fontFamily=Helvetica;fontSize=14;fontColor=#B85450;fillColor=#f8cecc;fixedSize=1;size=17;fontStyle=1;strokeWidth=2;spacingTop=0;points=[];" parent="_ru-9vgrOX0eKTn-rHO9-1" vertex="1">
          <mxGeometry x="280" y="30" width="100" height="60" as="geometry" />
        </mxCell>
      </root>
    </mxGraphModel>
  </diagram>
</mxfile>
